{
  "accessors": [
    {
      "bufferView": 1,
      "componentType": 5126,
      "count": 787,
      "max": [
        31.0,
        -56.07600021362305,
        57.0
      ],
      "min": [
        -31.0,
        -90.07599639892578,
        37.49470138549805
      ],
      "type": "VEC3"
    },
    {
      "bufferView": 1,
      "byteOffset": 9444,
      "componentType": 5126,
      "count": 787,
      "max": [
        1.0,
        1.0,
        0.9999518990516663
      ],
      "min": [
        -1.0,
        -1.0,
        -1.0
      ],
      "type": "VEC3"
    },
    {
      "bufferView": 0,
      "componentType": 5125,
      "count": 2289,
      "type": "SCALAR"
    },
    {
      "bufferView": 1,
      "byteOffset": 18888,
      "componentType": 5126,
      "count": 16194,
      "max": [
        36.0,
        -39.07600021362305,
        63.06700134277344
      ],
      "min": [
        -34.96799850463867,
        -135.86500549316406,
        25.65920066833496
      ],
      "type": "VEC3"
    },
    {
      "bufferView": 1,
      "byteOffset": 213216,
      "componentType": 5126,
      "count": 16194,
      "max": [
        1.0,
        0.9999015927314758,
        0.9999358654022217
      ],
      "min": [
        -1.0,
        -0.9999887347221375,
        -0.999963104724884
      ],
      "type": "VEC3"
    },
    {
      "bufferView": 0,
      "byteOffset": 9156,
      "componentType": 5125,
      "count": 54117,
      "type": "SCALAR"
    },
    {
      "bufferView": 1,
      "byteOffset": 407544,
      "componentType": 5126,
      "count": 41500,
      "max": [
        40.9900016784668,
        -23.0,
        54.486000061035156
      ],
      "min": [
        -40.9900016784668,
        -147.6840057373047,
        -48.534000396728516
      ],
      "type": "VEC3"
    },
    {
      "bufferView": 1,
      "byteOffset": 905544,
      "componentType": 5126,
      "count": 41500,
      "max": [
        1.0,
        1.0,
        1.0
      ],
      "min": [
        -1.0,
        -1.0,
        -1.0
      ],
      "type": "VEC3"
    },
    {
      "bufferView": 0,
      "byteOffset": 225624,
      "componentType": 5125,
      "count": 146649,
      "type": "SCALAR"
    }
  ],
  "asset": {
    "extras": {
      "author": "Not Cockatiel Slayer (https://sketchfab.com/Not-Cockatiel-Slayer)",
      "license": "CC-BY-4.0 (http://creativecommons.org/licenses/by/4.0/)",
      "source": "https://sketchfab.com/3d-models/iron-man-mark-45-7175318ff8c640c7bf89c3c289ea4abc",
      "title": "Iron Man Mark 45"
    },
    "generator": "Sketchfab-10.63.0",
    "version": "2.0"
  },
  "bufferViews": [
    {
      "buffer": 0,
      "byteLength": 812220,
      "name": "floatBufferViews",
      "target": 34963
    },
    {
      "buffer": 0,
      "byteLength": 1403544,
      "byteOffset": 812220,
      "byteStride": 12,
      "name": "floatBufferViews",
      "target": 34962
    }
  ],
  "buffers": [
    {
      "byteLength": 2215764,
      "uri": "scene.bin"
    }
  ],
  "materials": [
    {
      "doubleSided": true,
      "name": "color_11593967",
      "pbrMetallicRoughness": {
        "metallicFactor": 0.0
      }
    },
    {
      "doubleSided": true,
      "name": "color_16768282",
      "pbrMetallicRoughness": {
        "baseColorFactor": [
          1.0,
          0.8666670000000001,
          0.10196099999999997,
          1.0
        ],
        "roughnessFactor": 0.3963852251927399
      }
    },
    {
      "doubleSided": true,
      "name": "color_9771553",
      "pbrMetallicRoughness": {
        "baseColorFactor": [
          0.5843139999999996,
          0.10196099999999997,
          0.12941200000000008,
          1.0
        ],
        "roughnessFactor": 0.6276863549161524
      }
    }
  ],
  "meshes": [
    {
      "name": "Object_0",
      "primitives": [
        {
          "attributes": {
            "NORMAL": 1,
            "POSITION": 0
          },
          "indices": 2,
          "material": 0,
          "mode": 4
        }
      ]
    },
    {
      "name": "Object_1",
      "primitives": [
        {
          "attributes": {
            "NORMAL": 4,
            "POSITION": 3
          },
          "indices": 5,
          "material": 1,
          "mode": 4
        }
      ]
    },
    {
      "name": "Object_2",
      "primitives": [
        {
          "attributes": {
            "NORMAL": 7,
            "POSITION": 6
          },
          "indices": 8,
          "material": 2,
          "mode": 4
        }
      ]
    }
  ],
  "nodes": [
    {
      "children": [
        1
      ],
      "matrix": [
        1.0,
        0.0,
        0.0,
        0.0,
        0.0,
        -1.0,
        0.0,
        0.0,
        0.0,
        0.0,
        -1.0,
        0.0,
        0.0,
        -78.07544708251955,
        92.60850524902342,
        1.0
      ],
      "name": "Sketchfab_model"
    },
    {
      "children": [
        2,
        3,
        4
      ],
      "name": "tinker.obj.cleaner.materialmerger.gles"
    },
    {
      "mesh": 0,
      "name": "Object_2"
    },
    {
      "mesh": 1,
      "name": "Object_3"
    },
    {
      "mesh": 2,
      "name": "Object_4"
    }
  ],
  "scene": 0,
  "scenes": [
    {
      "name": "Sketchfab_Scene",
      "nodes": [
        0
      ]
    }
  ]
}
